<?xml version="1.0" encoding="UTF-8"?>
<svg xmlns="http://www.w3.org/2000/svg" viewBox="0 0 420 130" role="img" aria-label="Distributed DRL training topology">
  <rect width="420" height="130" rx="8" fill="#111827"/>
  <rect x="20" y="45" width="90" height="40" rx="6" fill="#1a2332" stroke="#94a3b8" stroke-width="1.5"/>
  <text x="65" y="69" fill="#e2e8f0" font-size="9" text-anchor="middle" font-family="sans-serif">Ray Head</text>
  <rect x="140" y="20" width="80" height="36" rx="6" fill="#1a2332" stroke="#94a3b8" stroke-width="1.5"/>
  <text x="180" y="42" fill="#e2e8f0" font-size="8" text-anchor="middle" font-family="sans-serif">GPU Worker</text>
  <rect x="140" y="74" width="80" height="36" rx="6" fill="#1a2332" stroke="#94a3b8" stroke-width="1.5"/>
  <text x="180" y="96" fill="#e2e8f0" font-size="8" text-anchor="middle" font-family="sans-serif">GPU Worker</text>
  <rect x="260" y="20" width="80" height="36" rx="6" fill="#1a2332" stroke="#94a3b8" stroke-width="1.5"/>
  <text x="300" y="42" fill="#e2e8f0" font-size="8" text-anchor="middle" font-family="sans-serif">GPU Worker</text>
  <rect x="260" y="74" width="80" height="36" rx="6" fill="#1a2332" stroke="#94a3b8" stroke-width="1.5"/>
  <text x="300" y="96" fill="#e2e8f0" font-size="8" text-anchor="middle" font-family="sans-serif">GPU Worker</text>
  <line x1="110" y1="65" x2="140" y2="38" stroke="#64748b" stroke-opacity="0.9" stroke-width="1.5"/>
  <line x1="110" y1="65" x2="140" y2="92" stroke="#64748b" stroke-opacity="0.9" stroke-width="1.5"/>
  <line x1="220" y1="38" x2="260" y2="38" stroke="#64748b" stroke-opacity="0.9" stroke-width="1.5"/>
  <line x1="220" y1="92" x2="260" y2="92" stroke="#64748b" stroke-opacity="0.9" stroke-width="1.5"/>
  <text x="360" y="38" fill="#64748b" font-size="8" font-family="sans-serif">DDP</text>
  <text x="360" y="92" fill="#64748b" font-size="8" font-family="sans-serif">ZeRO-2</text>
  <rect x="355" y="52" width="50" height="26" rx="4" fill="#0f1419" stroke="#475569" stroke-width="1"/>
  <text x="380" y="69" fill="#e2e8f0" font-size="8" text-anchor="middle" font-family="sans-serif">Accelerate</text>
</svg>
