<?xml version="1.0" encoding="UTF-8"?>
<svg xmlns="http://www.w3.org/2000/svg" viewBox="0 0 524 130" role="img" aria-label="Cloud platform DRL decision loop with parallel encoders and preference alignment auxiliary head">
  <defs>
    <linearGradient id="drl-loop-accent" x1="0%" y1="0%" x2="100%" y2="0%">
      <stop offset="0%" stop-color="#2dd4bf"/>
      <stop offset="100%" stop-color="#38bdf8"/>
    </linearGradient>
    <marker id="drl-loop-arrow" viewBox="0 0 10 10" refX="8" refY="5" markerWidth="5" markerHeight="5" orient="auto-start-reverse">
      <path d="M 0 0 L 10 5 L 0 10 z" fill="#38bdf8"/>
    </marker>
  </defs>
  <rect width="524" height="130" rx="8" fill="#111827"/>
  <g font-family="sans-serif" text-anchor="middle">
    <rect x="6" y="45" width="76" height="40" rx="8" fill="#1a2332" stroke="#38bdf8" stroke-width="1.5"/>
    <text x="44" y="62" fill="#e2e8f0" font-size="9" font-weight="600">Platform</text>
    <text x="44" y="76" fill="#94a3b8" font-size="7">Observability</text>
    <rect x="94" y="18" width="86" height="38" rx="8" fill="#1a2332" stroke="#64748b" stroke-width="1.2"/>
    <text x="137" y="34" fill="#e2e8f0" font-size="9" font-weight="600">Macro Enc</text>
    <text x="137" y="48" fill="#94a3b8" font-size="7">parallel</text>
    <rect x="94" y="74" width="86" height="38" rx="8" fill="#1a2332" stroke="#64748b" stroke-width="1.2"/>
    <text x="137" y="90" fill="#e2e8f0" font-size="9" font-weight="600">Micro Enc</text>
    <text x="137" y="104" fill="#94a3b8" font-size="7">parallel</text>
    <rect x="200" y="28" width="98" height="74" rx="8" fill="#1a2332" stroke="url(#drl-loop-accent)" stroke-width="2"/>
    <text x="249" y="54" fill="#2dd4bf" font-size="10" font-weight="700">BDQ Policy</text>
    <text x="249" y="70" fill="#cbd5e1" font-size="8">Actor-Critic</text>
    <text x="249" y="84" fill="#94a3b8" font-size="7">shared repr.</text>
    <rect x="316" y="18" width="82" height="38" rx="8" fill="#1a2332" stroke="#64748b" stroke-width="1.2"/>
    <text x="357" y="34" fill="#e2e8f0" font-size="9" font-weight="600">Control</text>
    <text x="357" y="48" fill="#94a3b8" font-size="7">primary</text>
    <rect x="316" y="74" width="82" height="38" rx="8" fill="#1a2332" stroke="#2dd4bf" stroke-width="1.5" stroke-dasharray="4 3"/>
    <text x="357" y="90" fill="#2dd4bf" font-size="8" font-weight="600">Pref Align</text>
    <text x="357" y="104" fill="#94a3b8" font-size="7">auxiliary</text>
    <rect x="416" y="45" width="96" height="40" rx="8" fill="#1a2332" stroke="#2dd4bf" stroke-width="1.5"/>
    <text x="464" y="62" fill="#2dd4bf" font-size="9" font-weight="600">GPU Replay</text>
    <text x="464" y="76" fill="#94a3b8" font-size="7">Buffer</text>
  </g>
  <line x1="82" y1="58" x2="94" y2="37" stroke="#38bdf8" stroke-width="1.5" marker-end="url(#drl-loop-arrow)"/>
  <line x1="82" y1="72" x2="94" y2="93" stroke="#38bdf8" stroke-width="1.5" marker-end="url(#drl-loop-arrow)"/>
  <line x1="180" y1="37" x2="200" y2="52" stroke="#38bdf8" stroke-width="1.5" marker-end="url(#drl-loop-arrow)"/>
  <line x1="180" y1="93" x2="200" y2="78" stroke="#38bdf8" stroke-width="1.5" marker-end="url(#drl-loop-arrow)"/>
  <line x1="298" y1="48" x2="316" y2="37" stroke="#38bdf8" stroke-width="1.5" marker-end="url(#drl-loop-arrow)"/>
  <line x1="298" y1="82" x2="316" y2="93" stroke="#2dd4bf" stroke-width="1.5" stroke-dasharray="4 3" marker-end="url(#drl-loop-arrow)"/>
  <line x1="398" y1="37" x2="416" y2="58" stroke="#38bdf8" stroke-width="1.5" marker-end="url(#drl-loop-arrow)"/>
  <line x1="398" y1="93" x2="416" y2="72" stroke="#2dd4bf" stroke-width="1.5" stroke-dasharray="4 3" marker-end="url(#drl-loop-arrow)"/>
</svg>
